<svg width="41" height="41" fill="none" xmlns="http://www.w3.org/2000/svg"><path d="M37.397 6.086H3.604A3.609 3.609 0 000 9.689v21.622a3.609 3.609 0 003.604 3.603h33.792A3.608 3.608 0 0041 31.31V9.69a3.607 3.607 0 00-3.603-3.604zm-.505 2.402L23.048 22.26a3.58 3.58 0 01-2.548 1.055 3.582 3.582 0 01-2.55-1.057L4.108 8.488h32.784zM2.402 30.822V10.18l10.381 10.326-10.38 10.316zm1.708 1.69L14.487 22.2l1.766 1.757a5.967 5.967 0 004.247 1.759 5.964 5.964 0 004.244-1.757l1.77-1.76L36.89 32.513H4.11zm34.488-1.69L28.217 20.506l10.38-10.326v20.642z" fill="#E9BE29"/></svg>