<svg width="41" height="41" fill="none" xmlns="http://www.w3.org/2000/svg"><g clip-path="url(#clip0)" fill="#E9BE29"><path d="M32.403 25.398c-.84-.874-1.852-1.341-2.925-1.341-1.064 0-2.085.459-2.96 1.332l-2.734 2.726c-.225-.12-.45-.233-.666-.346-.312-.156-.606-.303-.857-.458-2.561-1.627-4.889-3.747-7.121-6.49-1.082-1.368-1.809-2.519-2.337-3.687.71-.649 1.367-1.324 2.008-1.973.242-.242.484-.493.727-.735 1.817-1.818 1.817-4.171 0-5.988l-2.363-2.363a36.733 36.733 0 01-.805-.822 40.9 40.9 0 00-1.626-1.61c-.84-.83-1.844-1.271-2.9-1.271-1.055 0-2.076.44-2.941 1.272l-.018.017-2.942 2.968a6.33 6.33 0 00-1.878 4.024c-.207 2.527.537 4.88 1.108 6.42 1.402 3.782 3.496 7.287 6.62 11.042 3.79 4.526 8.35 8.1 13.56 10.618 1.99.943 4.646 2.06 7.615 2.25.181.008.372.017.545.017 1.999 0 3.677-.718 4.993-2.146.008-.017.026-.026.034-.043.45-.545.97-1.039 1.515-1.566a34.09 34.09 0 001.125-1.117c.856-.891 1.306-1.93 1.306-2.994 0-1.073-.458-2.103-1.332-2.968l-4.751-4.768zM35.5 34.51c-.009 0-.009.009 0 0-.338.364-.684.692-1.056 1.056a22.963 22.963 0 00-1.67 1.73c-.874.935-1.904 1.376-3.254 1.376-.13 0-.268 0-.398-.008-2.57-.165-4.958-1.169-6.75-2.025-4.897-2.371-9.198-5.737-12.772-10.004-2.95-3.556-4.923-6.844-6.23-10.375-.805-2.155-1.099-3.833-.97-5.417a3.972 3.972 0 011.195-2.57l2.95-2.95c.425-.399.875-.615 1.316-.615.545 0 .987.329 1.263.606.01.008.018.017.026.026.528.493 1.03 1.003 1.558 1.549.268.277.545.553.822.839l2.362 2.362c.918.918.918 1.766 0 2.683-.25.25-.493.502-.744.744a45.206 45.206 0 01-2.172 2.112c-.017.017-.034.025-.043.043-.744.744-.606 1.47-.45 1.964l.026.078c.614 1.488 1.48 2.89 2.795 4.56l.009.009c2.388 2.942 4.906 5.235 7.684 6.992.355.225.718.407 1.064.58.312.155.606.302.857.458.034.018.07.044.104.06.294.148.57.217.856.217.719 0 1.169-.45 1.316-.597l2.96-2.96c.293-.294.76-.648 1.306-.648.536 0 .978.337 1.246.631l.017.018 4.768 4.768c.892.882.892 1.79.009 2.708zM22.157 9.753a10.972 10.972 0 015.971 3.098 11.03 11.03 0 013.098 5.97c.095.572.589.97 1.151.97.07 0 .13-.009.2-.018a1.17 1.17 0 00.96-1.35 13.347 13.347 0 00-3.747-7.225 13.346 13.346 0 00-7.226-3.747 1.174 1.174 0 00-1.35.952 1.156 1.156 0 00.943 1.35zm18.795 8.333c-.77-4.517-2.898-8.627-6.17-11.898-3.27-3.271-7.38-5.4-11.898-6.17a1.164 1.164 0 00-1.341.952c-.104.64.32 1.237.96 1.35 4.033.683 7.71 2.596 10.635 5.512 2.925 2.925 4.829 6.602 5.513 10.635.095.57.588.969 1.15.969.07 0 .13-.009.2-.017a1.147 1.147 0 00.951-1.333z"/></g><defs><clipPath id="clip0"><path fill="#fff" d="M0 0h41v41H0z"/></clipPath></defs></svg>