<svg width="41" height="41" fill="none" xmlns="http://www.w3.org/2000/svg"><path d="M20.208 19.75c2.713 0 5.062-.973 6.982-2.893s2.893-4.269 2.893-6.982-.973-5.062-2.893-6.982S22.92 0 20.208 0c-2.714 0-5.063.973-6.982 2.893-1.92 1.92-2.893 4.269-2.893 6.982s.973 5.062 2.893 6.982 4.27 2.893 6.982 2.893zM14.925 4.592c1.473-1.473 3.2-2.19 5.283-2.19 2.082 0 3.81.717 5.283 2.19 1.473 1.473 2.19 3.201 2.19 5.283 0 2.082-.717 3.81-2.19 5.283-1.473 1.473-3.201 2.19-5.283 2.19-2.082 0-3.81-.717-5.283-2.19-1.473-1.473-2.19-3.201-2.19-5.283 0-2.082.717-3.81 2.19-5.283zm22.562 26.935a24.413 24.413 0 00-.332-2.59 20.407 20.407 0 00-.638-2.605 12.873 12.873 0 00-1.07-2.43 9.16 9.16 0 00-1.615-2.104c-.637-.61-1.417-1.1-2.32-1.457-.898-.356-1.895-.536-2.96-.536-.419 0-.824.172-1.605.68-.482.314-1.044.677-1.672 1.079-.537.342-1.265.662-2.164.953a8.591 8.591 0 01-2.646.427 8.597 8.597 0 01-2.646-.427c-.897-.29-1.625-.61-2.161-.953-.623-.398-1.186-.76-1.674-1.079-.781-.509-1.186-.68-1.604-.68-1.067 0-2.062.18-2.961.536-.902.357-1.682.847-2.32 1.457a9.16 9.16 0 00-1.614 2.104 12.892 12.892 0 00-1.07 2.43 20.414 20.414 0 00-.638 2.604 24.22 24.22 0 00-.332 2.592 35.083 35.083 0 00-.082 2.421c0 2.14.68 3.873 2.022 5.15C6.71 40.362 8.463 41 10.595 41h19.742c2.132 0 3.885-.64 5.21-1.9 1.342-1.277 2.023-3.01 2.023-5.151 0-.826-.028-1.641-.083-2.422zm-3.596 5.832c-.876.833-2.038 1.238-3.554 1.238H10.596c-1.517 0-2.679-.405-3.554-1.238-.859-.817-1.276-1.933-1.276-3.41 0-.768.025-1.527.076-2.255.05-.714.15-1.5.3-2.333.148-.824.337-1.597.56-2.296.215-.671.508-1.336.872-1.976a6.786 6.786 0 011.186-1.555c.412-.394.932-.717 1.543-.96a5.53 5.53 0 011.893-.364c.084.045.234.13.476.288.494.322 1.064.69 1.693 1.091.71.453 1.623.861 2.715 1.214 1.117.36 2.255.544 3.386.544 1.13 0 2.269-.183 3.384-.544 1.093-.353 2.007-.761 2.717-1.214.645-.412 1.198-.769 1.692-1.09.243-.159.392-.244.476-.29.691.02 1.327.142 1.893.366.612.242 1.131.565 1.543.96.44.42.84.944 1.187 1.555.363.64.657 1.304.871 1.974.225.7.413 1.474.56 2.297.15.835.252 1.62.301 2.333v.001c.051.725.077 1.484.077 2.254 0 1.477-.418 2.593-1.276 3.41z" fill="#E9BE29"/></svg>