<svg width="30" height="18" fill="none" xmlns="http://www.w3.org/2000/svg"><path d="M26.6 7.598c.426-.552.765-.994 1.015-1.328 1.801-2.395 2.582-3.925 2.343-4.592l-.094-.156c-.062-.094-.224-.18-.484-.258-.26-.078-.594-.09-1-.04l-4.498.032a1.281 1.281 0 00-.516.054l-.078.04-.062.046a.693.693 0 00-.172.165 1.06 1.06 0 00-.156.273 25.48 25.48 0 01-1.671 3.515 33.61 33.61 0 01-1.062 1.678c-.323.475-.594.823-.813 1.047a5.63 5.63 0 01-.593.539c-.177.136-.313.192-.406.172a7.79 7.79 0 01-.266-.063 1.03 1.03 0 01-.351-.383 1.717 1.717 0 01-.18-.609 6.57 6.57 0 01-.054-.632 12.43 12.43 0 01.008-.75c.01-.323.015-.541.015-.656 0-.396.008-.825.024-1.289.015-.463.028-.83.039-1.101.01-.27.015-.557.015-.86 0-.3-.018-.538-.055-.71a2.49 2.49 0 00-.163-.5.838.838 0 00-.321-.374 1.806 1.806 0 00-.523-.211C15.989.52 15.286.454 14.432.443 12.495.423 11.251.548 10.7.82c-.219.115-.417.27-.594.468-.187.23-.213.355-.077.375.624.094 1.067.318 1.327.672l.094.187c.073.136.146.375.219.719.072.343.12.723.14 1.14.052.76.052 1.41 0 1.953-.052.541-.101.963-.148 1.264a2.535 2.535 0 01-.21.734 3.074 3.074 0 01-.188.344.274.274 0 01-.078.078 1.172 1.172 0 01-.422.078c-.146 0-.323-.073-.531-.219a3.692 3.692 0 01-.648-.6 7.992 7.992 0 01-.758-1.071c-.281-.458-.573-1-.875-1.624l-.25-.453c-.156-.291-.37-.716-.64-1.273-.27-.557-.51-1.096-.718-1.617a1.035 1.035 0 00-.375-.5l-.078-.047a1.063 1.063 0 00-.25-.132 1.683 1.683 0 00-.36-.102L1 1.224c-.437 0-.733.1-.89.298l-.062.093a.504.504 0 00-.047.25c0 .115.031.255.094.422a51.552 51.552 0 002.038 4.248c.734 1.364 1.372 2.463 1.914 3.296a38.58 38.58 0 001.655 2.359c.563.74.935 1.213 1.117 1.42.182.21.325.366.43.47l.39.375c.25.25.617.549 1.101.898.485.349 1.02.692 1.61 1.03.587.34 1.272.615 2.053.829.781.213 1.541.3 2.28.257h1.797c.364-.031.64-.145.828-.344l.062-.077a1.1 1.1 0 00.117-.29c.036-.13.055-.273.055-.428-.01-.448.023-.852.101-1.211.078-.36.167-.63.266-.813a1.98 1.98 0 01.336-.46c.125-.126.213-.2.265-.227.053-.025.094-.043.125-.054.25-.084.544-.003.883.242.338.245.656.546.953.906.297.359.653.762 1.07 1.21.416.448.78.781 1.093 1l.313.188c.208.124.478.239.812.343.333.104.625.13.874.078l4-.063c.395 0 .702-.064.92-.195.22-.13.35-.273.391-.43.041-.155.044-.332.008-.53a1.937 1.937 0 00-.11-.414 2.126 2.126 0 00-.101-.195c-.52-.937-1.515-2.088-2.983-3.452l-.032-.03-.015-.017-.016-.015h-.015c-.667-.635-1.089-1.062-1.265-1.281-.323-.416-.396-.838-.22-1.265.125-.324.593-1.006 1.406-2.047z" fill="#0C6BDC"/></svg>