<svg width="37" height="47" fill="none" xmlns="http://www.w3.org/2000/svg"><path d="M14.353 30.232c-.826.098-1.589.005-2.289-.277a3.973 3.973 0 01-1.705-1.329c-.449-.613-.722-1.327-.82-2.142-.097-.816.002-1.569.295-2.259a3.965 3.965 0 011.346-1.69c.614-.438 1.334-.705 2.16-.803.72-.085 1.378-.018 1.973.201a3.17 3.17 0 011.497 1.064l-.774.671a2.596 2.596 0 00-1.159-.797 3.07 3.07 0 00-1.42-.154 3.288 3.288 0 00-1.587.607 2.877 2.877 0 00-.992 1.277c-.205.53-.27 1.112-.194 1.747.077.646.277 1.203.602 1.67.333.454.755.79 1.264 1.01.519.206 1.08.274 1.684.203a3.202 3.202 0 001.346-.466c.4-.251.713-.6.939-1.046l.91.473a3.266 3.266 0 01-1.202 1.399c-.54.343-1.164.557-1.874.64zm8.99-1.049c-.858.102-1.653-.035-2.385-.41-.722-.377-1.324-.966-1.806-1.768-.474-.814-.779-1.798-.917-2.953-.137-1.154-.071-2.177.199-3.069.279-.903.725-1.621 1.338-2.156.623-.536 1.364-.854 2.222-.956.858-.101 1.648.036 2.37.412.732.375 1.34.97 1.823 1.782.483.802.793 1.78.93 2.935.138 1.155.067 2.183-.212 3.087-.28.892-.732 1.606-1.356 2.142-.613.534-1.348.852-2.206.954zm-.125-1.049c.646-.076 1.191-.323 1.636-.741.454-.42.779-.99.972-1.71.193-.721.232-1.57.116-2.544s-.353-1.79-.71-2.445c-.358-.656-.808-1.134-1.348-1.435-.53-.303-1.119-.416-1.765-.34a2.87 2.87 0 00-1.651.744c-.445.418-.764.987-.957 1.709-.193.72-.232 1.568-.116 2.543.117.974.354 1.79.71 2.445.358.656.802 1.135 1.332 1.438.541.3 1.135.413 1.78.336z" fill="#000" fill-opacity=".4"/><path d="M20.688 44.46c-9.522 1.128-16.505-5.108-17.79-15.88A32.8 32.8 0 015.45 11.645C7.922 6.179 11.555 2.9 15.675 2.413c4.12-.488 8.421 1.85 12.111 6.586a32.838 32.838 0 016.462 15.868c1.284 10.772-4.038 18.465-13.56 19.593zM15.812 3.563c-8.183.969-13.045 14.17-11.767 24.882 1.2 10.075 7.68 15.91 16.506 14.865s13.752-8.23 12.55-18.307c-1.276-10.711-9.107-22.41-17.29-21.44z" fill="#000" fill-opacity=".4"/></svg>