<svg width="61" height="61" fill="none" xmlns="http://www.w3.org/2000/svg"><path d="M47.95 17.92a.769.769 0 00-.08-.32.629.629 0 00-.15-.33l-3.57-4.17H16.89l-3.57 4.15a.63.63 0 00-.15.33.772.772 0 00-.08.32v6.21h1.74v23.84h31.42V24.13h1.7v-6.21zm-30.52-3.67h26.19l2.49 2.9H14.94l2.49-2.9zm27.62 32.54h-29V24.13h29v22.66zm1.74-23.82H14.25v-4.65h32.54v4.65z" fill="#EE3026" stroke="#EE3026" stroke-width=".25" stroke-miterlimit="10"/><path d="M37.5 26.46H23.55v5.79H37.5v-5.79zm-1.16 4.65H24.72v-3.49h11.61l.01 3.49zm2.91 4.06H21.81v8.14h17.44v-8.14zm-1.16 7H22.97v-5.84h15.1l.02 5.84z" fill="#EE3026" stroke="#EE3026" stroke-width=".25" stroke-miterlimit="10"/><path d="M25.88 40.98h2.9a.58.58 0 100-1.16h-2.9a.58.58 0 100 1.16zm2.9-2.32h6.39a.58.58 0 100-1.16h-6.39a.58.58 0 100 1.16zm-2.9 0a.57.57 0 10-.008-1.14.57.57 0 00.008 1.14zm5.37 1.33a.58.58 0 10.83 0 .61.61 0 00-.83 0zm3.92-.17h-.58a.58.58 0 100 1.16h.58a.58.58 0 000-1.16z" fill="#EE3026" stroke="#EE3026" stroke-width=".25" stroke-miterlimit="10"/><path d="M30.52 60.04c16.303 0 29.52-13.217 29.52-29.52C60.04 14.217 46.823 1 30.52 1 14.217 1 1 14.217 1 30.52c0 16.303 13.217 29.52 29.52 29.52z" stroke="#EE3026" stroke-width="1.5" stroke-miterlimit="10"/></svg>