<svg width="62" height="61" fill="none" xmlns="http://www.w3.org/2000/svg"><path d="M28.99 29.06h-3.12a.55.55 0 100 1.1h3.15a.55.55 0 100-1.1h-.03zm16.5 15.6h-3.15a.55.55 0 000 1.1h3.15a.55.55 0 000-1.1zM27.98 17.41h-3.11a.55.55 0 100 1.1h3.15a.55.55 0 000-1.1h-.04zm1.01 13.48h-3.12a.55.55 0 000 1.1h3.15a.55.55 0 100-1.1h-.03zm-3.12 12.74h3.15a.55.55 0 100-1.1h-3.15a.55.55 0 000 1.1zm0 1.83h3.15a.55.55 0 000-1.1h-3.15a.55.55 0 100 1.1z" fill="#EE3026" stroke="#EE3026" stroke-width=".25" stroke-miterlimit="10"/><path d="M48.33 40.38h-3.84v-5.83a.55.55 0 00-1.1 0v5.82h-4.25a1 1 0 00-1 1v5.48h-6.21a.09.09 0 01-.09-.09V26.62a.09.09 0 01.09-.09h3.24v6.26a.55.55 0 00.89.43l1.56-1.24 1.56 1.27a.55.55 0 00.89-.43v-6.29h3.23a.091.091 0 01.083.056.09.09 0 01.007.034v6.1a.55.55 0 001.1 0v-6.1a1.19 1.19 0 00-1.19-1.19H31.87V21a1.42 1.42 0 00-.19-.72 1 1 0 00.19-.58v-5.61a1 1 0 00-1-1h-9.18a1 1 0 00-1 1v5.48h-4.76A1.43 1.43 0 0014.5 21v11.87a1.42 1.42 0 00.3.88 1.42 1.42 0 00-.3.88v11.86a1.43 1.43 0 001.43 1.43h11.11a.55.55 0 100-1.1H15.93a.33.33 0 01-.33-.33V34.63a.33.33 0 01.33-.33h4.79v6.26a.55.55 0 00.89.43l1.56-1.24 1.56 1.24a.55.55 0 00.89-.43v-6.31h4.79a.33.33 0 01.33.33v11.91a.33.33 0 01-.33.33h-1.49a.55.55 0 000 1.1h1.49a1.42 1.42 0 00.8-.24c.207.157.46.242.72.24h16.4a1 1 0 001-1v-5.58a1 1 0 00-1-.96zm-9.36-13.85v5.13l-1-.8a.55.55 0 00-.68 0l-1 .8v-5.13h2.68zm-17.1-5.86h2.71v5.13l-1-.8a.55.55 0 00-.68 0l-1 .8-.03-5.13zm3.26-1.1h-3.26v-3.08h8.93v3.08h-5.72.05zm-3.26-5.32h8.93v1.17h-8.93v-1.17zm2.71 25.2l-1-.8a.55.55 0 00-.68 0l-1 .8v-5.2h2.71l-.03 5.2zm.55-6.23h-9.2a.33.33 0 01-.33-.33V21a.33.33 0 01.33-.33h4.79v6.26a.55.55 0 00.89.43l1.56-1.24 1.56 1.24a.55.55 0 00.89-.43v-6.26h4.79a.33.33 0 01.33.33v11.87a.33.33 0 01-.33.33l-5.28.02zm14.14 8.26h8.93v1.17h-8.93v-1.17zm0 5.35v-3.09h8.93v3.08h-8.93v.01z" fill="#EE3026" stroke="#EE3026" stroke-width=".25" stroke-miterlimit="10"/><path d="M31.14 60.04c16.304 0 29.52-13.217 29.52-29.52C60.66 14.217 47.444 1 31.14 1 14.837 1 1.62 14.217 1.62 30.52c0 16.303 13.217 29.52 29.52 29.52z" stroke="#EE3026" stroke-width="1.5" stroke-miterlimit="10"/></svg>