<svg width="61" height="61" fill="none" xmlns="http://www.w3.org/2000/svg"><path d="M38.97 26.01H22.23v1.29h16.74v-1.29zm0-3.86H22.23v1.28h16.74v-1.28z" fill="#EE3026"/><path d="M42.85 23.95v-4.38a2.59 2.59 0 00-2.58-2.58h-5.29l-4.38-3.86-4.37 3.86h-5.29a2.592 2.592 0 00-2.61 2.58v4.38l-3.86 3.35v18a2.59 2.59 0 002.58 2.58h27a2.59 2.59 0 002.58-2.58v-18l-3.78-3.35zm0 1.68l1.93 1.67-1.93 1.67v-3.34zM30.6 14.81L33.05 17h-5l2.55-2.19zm-11 4.77a1.22 1.22 0 011.34-1.33h19.33a1.39 1.39 0 011.29 1.29v10.47l-4.13 3.74H23.78l-4.13-3.61-.05-10.56zm13.53 18h-5.1l-2.83-2.57h10.69l-2.76 2.57zm-14.8-11.95v3.48l-1.9-1.81 1.9-1.67zm-2.15 20.62a1.171 1.171 0 01-.38-.9V28.59l10.3 9-9.92 8.66zm1.55.39l9-7.73h7.72l9 7.73H17.73zm27.69-9.66v8.37a1.17 1.17 0 01-.38.9l-9.92-8.63 10.3-9v8.36z" fill="#EE3026"/><path d="M38.97 29.88H22.23v1.29h16.74v-1.29z" fill="#EE3026"/><path d="M30.6 60.04c16.303 0 29.52-13.217 29.52-29.52C60.12 14.217 46.904 1 30.6 1 14.297 1 1.08 14.217 1.08 30.52c0 16.303 13.217 29.52 29.52 29.52z" stroke="#EE3026" stroke-width="1.5" stroke-miterlimit="10"/></svg>