<svg width="62" height="61" fill="none" xmlns="http://www.w3.org/2000/svg"><path d="M41.66 19.79a15.178 15.178 0 00-21.61.14.82.82 0 101.17 1.14 13.55 13.55 0 11-3.85 9.46v-.18l1.35 1.35a.82.82 0 001.16-1.16l-2.74-2.75a.82.82 0 00-1.16 0l-2.74 2.76a.82.82 0 001.16 1.16l1.39-1.36v.17a15.18 15.18 0 1025.87-10.73z" fill="#EE3026"/><path d="M35.27 25l-10 10a.82.82 0 101.16 1.16l10-10a.82.82 0 10-1.16-1.15V25zm-2.63 6.76a2.93 2.93 0 104.148 4.14 2.93 2.93 0 00-4.148-4.14zm3 3a1.271 1.271 0 01-.91.37 1.29 1.29 0 01-.91-2.2 1.271 1.271 0 01.91-.37 1.29 1.29 0 01.91 2.2zm-8.48-10.51a2.93 2.93 0 10-.007 5.86 2.93 2.93 0 00.007-5.86zm.91 3.84a1.27 1.27 0 01-.91.37 1.3 1.3 0 01-.91-.37 1.269 1.269 0 01-.37-.91c0-.34.133-.667.37-.91a1.269 1.269 0 01.91-.37c.34 0 .667.132.91.37a1.3 1.3 0 010 1.83v-.01z" fill="#EE3026"/><path d="M31.06 60.04c16.304 0 29.52-13.217 29.52-29.52C60.58 14.217 47.364 1 31.06 1 14.757 1 1.54 14.217 1.54 30.52c0 16.303 13.217 29.52 29.52 29.52z" stroke="#EE3026" stroke-width="1.5" stroke-miterlimit="10"/></svg>