<svg width="170" height="46" fill="none" xmlns="http://www.w3.org/2000/svg"><path d="M9.53 16.59v-5.978H6.994L3.408 16.59H0l3.9-6.352a4.787 4.787 0 01-2.196-1.816 5.094 5.094 0 01-.826-2.898 4.954 4.954 0 01.382-1.932c.25-.6.607-1.148 1.054-1.616A4.934 4.934 0 013.917.864 4.987 4.987 0 015.941.445H12.6V16.59H9.53zm0-13.474H6.28a2.17 2.17 0 00-.852.17 2.421 2.421 0 00-.73.498c-.22.21-.395.465-.513.747-.13.313-.194.65-.189.989a2.416 2.416 0 00.641 1.75 2.124 2.124 0 001.581.658H9.53V3.116zm8.734 9.134l5.559-7.567h2.218V16.59h-2.982V9.228l-5.494 7.362h-2.283V4.683h2.982v7.567zM24.592 0c.002.428-.091.85-.274 1.236-.182.386-.45.724-.78.99a4.11 4.11 0 01-2.635.805 4.106 4.106 0 01-2.635-.805 2.806 2.806 0 01-.78-.99A2.846 2.846 0 0117.213 0h1.66a1.571 1.571 0 00.549 1.273c.44.3.964.443 1.493.41 1.285 0 1.973-.561 2.064-1.683h1.611zm4.035 4.683h2.99v9.272h3.9V4.683H38.5v9.272h1.9V20h-2.635v-3.41h-9.138V4.683z" fill="#fff"/><path d="M47.286 16.817a6.37 6.37 0 01-2.578-.498 5.784 5.784 0 01-1.94-1.336 5.98 5.98 0 01-1.222-1.967 6.708 6.708 0 010-4.705c.276-.73.691-1.4 1.221-1.968a5.79 5.79 0 011.941-1.335 6.374 6.374 0 012.578-.499 6.297 6.297 0 012.569.499c.725.308 1.38.763 1.928 1.335a5.99 5.99 0 011.22 1.968 6.709 6.709 0 010 4.705 6.081 6.081 0 01-1.212 1.967 5.663 5.663 0 01-1.927 1.336 6.37 6.37 0 01-2.578.498zm-3.074-6.16c-.006.49.074.98.237 1.442.146.413.366.795.65 1.126a2.9 2.9 0 00.975.739 2.938 2.938 0 002.42 0c.372-.174.705-.426.974-.739.286-.333.506-.719.65-1.135.163-.467.243-.96.237-1.456a4.223 4.223 0 00-.237-1.433 3.507 3.507 0 00-.65-1.135 2.915 2.915 0 00-.975-.74 2.83 2.83 0 00-1.212-.262 2.753 2.753 0 00-1.212.272 3.052 3.052 0 00-.974.752 3.513 3.513 0 00-.65 1.135 4.21 4.21 0 00-.233 1.434zm18.145 6.044a7.15 7.15 0 01-3.18-.676 7.804 7.804 0 01-2.445-1.843 8.604 8.604 0 01-2.139-5.649 8.203 8.203 0 01.593-3.089c.384-.965.94-1.85 1.638-2.613a7.812 7.812 0 012.459-1.82 7.276 7.276 0 013.118-.673 6.913 6.913 0 013.148.717 7.885 7.885 0 012.433 1.874 8.654 8.654 0 011.568 2.635c.369.956.56 1.974.562 3a8.256 8.256 0 01-.584 3.08c-.37.96-.91 1.84-1.594 2.6a7.762 7.762 0 01-2.468 1.78 7.267 7.267 0 01-3.11.677zM57.733 8.52a6.56 6.56 0 00.316 2.02c.197.628.505 1.213.909 1.728.397.5.894.91 1.458 1.202a4.459 4.459 0 003.952 0 4.535 4.535 0 001.458-1.238 5.53 5.53 0 00.878-1.74c.201-.636.303-1.3.303-1.968a6.382 6.382 0 00-.325-2.02 5.62 5.62 0 00-.917-1.728 4.406 4.406 0 00-1.454-1.215 4.49 4.49 0 00-3.952.022A4.44 4.44 0 0058.9 4.812a5.55 5.55 0 00-.878 1.727 6.534 6.534 0 00-.29 1.98z" fill="#EE2E24"/><path d="M82.311 16.59H79.33V7.318h-4.325v9.272h-2.986V4.683h10.289l.004 11.907zm8.054 0h-2.977V7.318h-3.676V4.683h10.306v2.635h-3.653v9.272zm10.508.227a6.37 6.37 0 01-2.577-.498 5.784 5.784 0 01-1.941-1.336 5.98 5.98 0 01-1.221-1.967 6.709 6.709 0 010-4.705c.276-.73.69-1.4 1.22-1.968a5.79 5.79 0 011.942-1.335 6.374 6.374 0 012.577-.499 6.297 6.297 0 012.569.499 5.817 5.817 0 011.928 1.335 5.99 5.99 0 011.221 1.968 6.709 6.709 0 010 4.705 6.098 6.098 0 01-1.199 1.95 5.663 5.663 0 01-1.928 1.335 6.37 6.37 0 01-2.591.516zm-3.074-6.16c-.005.49.075.98.237 1.442.146.413.367.795.65 1.126a2.938 2.938 0 003.417.739c.373-.174.705-.426.975-.739.285-.333.506-.719.65-1.135.162-.467.242-.96.237-1.456a4.235 4.235 0 00-.237-1.433 3.514 3.514 0 00-.65-1.135 2.913 2.913 0 00-.975-.74 2.83 2.83 0 00-1.212-.262 2.736 2.736 0 00-1.212.272 3.052 3.052 0 00-.975.752 3.515 3.515 0 00-.65 1.135c-.165.46-.25.945-.25 1.434h-.005zm17.658.365l3.473-6.34h3.074V16.59h-2.867V9.432l-2.982 5.342h-1.414l-2.982-5.342v7.158h-2.854V4.683h3.074l3.478 6.339zM9.95 39.084c-.97 0-1.853-.215-2.646-.644a4.87 4.87 0 01-1.848-1.792c-.439-.756-.658-1.605-.658-2.548 0-.943.22-1.792.658-2.548a4.768 4.768 0 011.848-1.778c.793-.439 1.675-.658 2.646-.658.97 0 1.843.215 2.618.644.784.43 1.4 1.027 1.848 1.792.448.756.672 1.605.672 2.548 0 .943-.224 1.797-.672 2.562a4.768 4.768 0 01-1.848 1.778c-.775.43-1.647.644-2.618.644zm0-.924c.775 0 1.475-.173 2.1-.518a3.865 3.865 0 001.47-1.456c.355-.625.532-1.32.532-2.086 0-.765-.177-1.456-.532-2.072a3.738 3.738 0 00-1.47-1.456c-.625-.355-1.325-.532-2.1-.532-.775 0-1.48.177-2.114.532a3.83 3.83 0 00-1.484 1.456c-.355.616-.532 1.307-.532 2.072 0 .765.177 1.46.532 2.086a3.968 3.968 0 001.484 1.456 4.35 4.35 0 002.114.518zm13.98-6.524V39h-.994v-6.482h-4.62V39h-.994v-7.364h6.608zm8.006.882H29.15V39h-.994v-6.482H25.37v-.882h6.566v.882zm4.133 6.552c-.71 0-1.349-.159-1.918-.476a3.574 3.574 0 01-1.344-1.344c-.327-.57-.49-1.213-.49-1.932 0-.719.163-1.363.49-1.932a3.473 3.473 0 011.344-1.33 3.878 3.878 0 011.918-.476c.71 0 1.349.159 1.918.476.57.317 1.013.76 1.33 1.33.327.57.49 1.213.49 1.932 0 .719-.163 1.363-.49 1.932a3.473 3.473 0 01-1.33 1.344 3.878 3.878 0 01-1.918.476zm0-.882c.523 0 .99-.117 1.4-.35a2.52 2.52 0 00.98-1.022c.233-.439.35-.938.35-1.498s-.117-1.06-.35-1.498a2.43 2.43 0 00-.98-1.008 2.7 2.7 0 00-1.4-.364 2.77 2.77 0 00-1.414.364c-.41.233-.737.57-.98 1.008-.233.439-.35.938-.35 1.498s.117 1.06.35 1.498c.243.439.57.78.98 1.022.42.233.892.35 1.414.35zm10.553-2.996c.998.233 1.498.835 1.498 1.806 0 .644-.238 1.139-.714 1.484S46.22 39 45.278 39h-3.346v-7.364h3.248c.84 0 1.498.163 1.974.49.476.327.714.793.714 1.4 0 .401-.112.747-.336 1.036-.215.28-.518.49-.91.63zm-3.724-.28h2.212c.569 0 1.003-.107 1.302-.322.308-.215.462-.527.462-.938 0-.41-.154-.719-.462-.924-.3-.205-.733-.308-1.302-.308h-2.212v2.492zm2.338 3.304c.634 0 1.11-.103 1.428-.308.317-.205.476-.527.476-.966 0-.439-.145-.76-.434-.966-.29-.215-.747-.322-1.372-.322h-2.436v2.562h2.338zm7.747-6.636c.962 0 1.699.243 2.212.728.514.476.77 1.185.77 2.128V39h-.952v-1.148a2.272 2.272 0 01-.994.896c-.43.215-.942.322-1.54.322-.821 0-1.474-.196-1.96-.588-.485-.392-.728-.91-.728-1.554 0-.625.224-1.13.672-1.512.457-.383 1.18-.574 2.17-.574h2.338v-.448c0-.635-.177-1.115-.532-1.442-.355-.336-.873-.504-1.554-.504-.466 0-.914.08-1.344.238-.43.15-.798.36-1.106.63l-.448-.742a3.89 3.89 0 011.344-.728 5.107 5.107 0 011.652-.266zm-.35 6.706c.56 0 1.04-.126 1.442-.378.401-.261.7-.635.896-1.12v-1.204h-2.31c-1.26 0-1.89.439-1.89 1.316 0 .43.163.77.49 1.022.327.243.784.364 1.372.364zm11.634-6.65V39h-.91v-2.436h-2.59L59.06 39h-1.078l1.834-2.576c-.57-.159-1.008-.43-1.316-.812-.308-.383-.462-.868-.462-1.456 0-.821.28-1.447.84-1.876.56-.43 1.326-.644 2.296-.644h3.094zm-5.222 2.548c0 1.092.696 1.638 2.086 1.638h2.226v-3.304h-2.156c-1.437 0-2.156.555-2.156 1.666zm18.329-2.548V39h-.994v-6.482h-4.62V39h-.994v-7.364h6.608zm6.62-.056c.69 0 1.315.159 1.875.476.56.308.999.747 1.316 1.316.317.57.476 1.218.476 1.946 0 .737-.159 1.39-.476 1.96a3.402 3.402 0 01-1.316 1.33c-.55.308-1.176.462-1.876.462a3.58 3.58 0 01-1.624-.364 3.135 3.135 0 01-1.176-1.092v4.102H80.2v-10.08h.952v1.456c.299-.485.69-.859 1.176-1.12a3.511 3.511 0 011.666-.392zm-.07 6.608c.512 0 .98-.117 1.4-.35.42-.243.746-.583.98-1.022.242-.439.363-.938.363-1.498s-.121-1.055-.364-1.484a2.523 2.523 0 00-.98-1.022 2.747 2.747 0 00-1.4-.364 2.77 2.77 0 00-1.414.364c-.41.243-.737.583-.98 1.022-.233.43-.35.924-.35 1.484 0 .56.117 1.06.35 1.498.243.439.57.78.98 1.022.42.233.891.35 1.414.35zm8.91.882a3.871 3.871 0 01-1.917-.476 3.574 3.574 0 01-1.344-1.344c-.327-.57-.49-1.213-.49-1.932 0-.719.163-1.363.49-1.932a3.473 3.473 0 011.344-1.33 3.878 3.878 0 011.918-.476c.71 0 1.349.159 1.918.476.57.317 1.013.76 1.33 1.33.326.57.49 1.213.49 1.932 0 .719-.163 1.363-.49 1.932a3.473 3.473 0 01-1.33 1.344 3.878 3.878 0 01-1.918.476zm0-.882c.523 0 .99-.117 1.4-.35.42-.243.748-.583.98-1.022.234-.439.35-.938.35-1.498s-.116-1.06-.35-1.498a2.43 2.43 0 00-.98-1.008 2.7 2.7 0 00-1.4-.364 2.77 2.77 0 00-1.413.364 2.55 2.55 0 00-.98 1.008c-.234.439-.35.938-.35 1.498s.117 1.06.35 1.498c.242.439.57.78.98 1.022.42.233.891.35 1.414.35zm13.004-.056v2.646h-.938V39h-6.594v1.778h-.938v-2.646h.42c.495-.028.83-.392 1.008-1.092.177-.7.299-1.68.364-2.94l.098-2.464h5.432v6.496h1.148zm-5.768-3.976c-.046 1.045-.135 1.909-.266 2.59-.13.672-.364 1.134-.7 1.386h4.592v-5.614h-3.542l-.084 1.638zm10.239-2.576c.962 0 1.699.243 2.212.728.514.476.77 1.185.77 2.128V39h-.952v-1.148a2.27 2.27 0 01-.994.896c-.429.215-.942.322-1.54.322-.821 0-1.474-.196-1.96-.588-.485-.392-.728-.91-.728-1.554 0-.625.224-1.13.672-1.512.458-.383 1.181-.574 2.17-.574h2.338v-.448c0-.635-.177-1.115-.532-1.442-.354-.336-.872-.504-1.554-.504-.466 0-.914.08-1.344.238-.429.15-.798.36-1.106.63l-.448-.742a3.9 3.9 0 011.344-.728 5.112 5.112 0 011.652-.266zm-.35 6.706c.56 0 1.041-.126 1.442-.378.402-.261.7-.635.896-1.12v-1.204h-2.31c-1.26 0-1.89.439-1.89 1.316 0 .43.164.77.49 1.022.327.243.784.364 1.372.364zm12.432-2.562h-1.596V39h-.994v-3.276h-1.596L115.951 39h-1.19l2.646-3.794-2.436-3.57h1.078l2.156 3.234h1.596v-3.234h.994v3.234h1.596l2.17-3.234h1.078l-2.436 3.584 2.646 3.78h-1.19l-2.268-3.276zm7.51-4.144c.961 0 1.699.243 2.212.728.513.476.77 1.185.77 2.128V39h-.952v-1.148a2.27 2.27 0 01-.994.896c-.429.215-.943.322-1.54.322-.821 0-1.475-.196-1.96-.588-.485-.392-.728-.91-.728-1.554 0-.625.224-1.13.672-1.512.457-.383 1.181-.574 2.17-.574h2.338v-.448c0-.635-.177-1.115-.532-1.442-.355-.336-.873-.504-1.554-.504-.467 0-.915.08-1.344.238-.429.15-.798.36-1.106.63l-.448-.742c.373-.317.821-.56 1.344-.728a5.107 5.107 0 011.652-.266zm-.35 6.706c.56 0 1.041-.126 1.442-.378.401-.261.7-.635.896-1.12v-1.204h-2.31c-1.26 0-1.89.439-1.89 1.316 0 .43.163.77.49 1.022.327.243.784.364 1.372.364zm15.298-6.65V39h-.91v-2.436h-2.59L139.641 39h-1.078l1.834-2.576c-.569-.159-1.008-.43-1.316-.812-.308-.383-.462-.868-.462-1.456 0-.821.28-1.447.84-1.876.56-.43 1.326-.644 2.296-.644h3.094zm-5.222 2.548c0 1.092.696 1.638 2.086 1.638h2.226v-3.304h-2.156c-1.437 0-2.156.555-2.156 1.666zm8.057-2.548h.994v5.852l4.914-5.852h.882V39h-.994v-5.852L148.58 39h-.896v-7.364zm17.31 6.496v2.716h-.938V39h-6.734v-7.364h.994v6.496h4.494v-6.496h.994v6.496h1.19z" fill="#fff"/></svg>