<svg width="69" height="21" fill="none" xmlns="http://www.w3.org/2000/svg"><path d="M19.35 2.5L11.725 20h-3.2L.875 2.5H4.4L10.225 16 16.1 2.5h3.25zm1.669 4.15h3.125V20h-3.125V6.65zm1.575-2.2c-.567 0-1.042-.175-1.425-.525a1.795 1.795 0 01-.575-1.35c0-.533.191-.975.575-1.325.383-.367.858-.55 1.425-.55.566 0 1.041.175 1.425.525.383.333.575.758.575 1.275 0 .55-.192 1.017-.575 1.4-.367.367-.842.55-1.425.55zM35.645 6.5c1.3 0 2.459.283 3.475.85a6.107 6.107 0 012.425 2.4c.584 1.033.875 2.225.875 3.575s-.291 2.55-.875 3.6a6.108 6.108 0 01-2.425 2.4c-1.016.567-2.175.85-3.475.85-.916 0-1.758-.158-2.525-.475a4.855 4.855 0 01-1.9-1.425V20h-2.975V1.45h3.125v6.825a5.273 5.273 0 011.875-1.325c.734-.3 1.534-.45 2.4-.45zm-.35 11c1.15 0 2.092-.383 2.825-1.15.75-.767 1.125-1.775 1.125-3.025s-.375-2.258-1.125-3.025c-.733-.767-1.675-1.15-2.825-1.15-.75 0-1.425.175-2.025.525-.6.333-1.075.817-1.425 1.45-.35.633-.525 1.367-.525 2.2 0 .833.175 1.567.525 2.2.35.633.825 1.125 1.425 1.475.6.333 1.275.5 2.025.5zm22.639-4.1c0 .217-.017.525-.05.925H47.409c.183.983.658 1.767 1.425 2.35.783.567 1.75.85 2.9.85 1.467 0 2.675-.483 3.625-1.45L57.034 18a5.643 5.643 0 01-2.275 1.625c-.917.367-1.95.55-3.1.55-1.467 0-2.758-.292-3.875-.875s-1.983-1.392-2.6-2.425c-.6-1.05-.9-2.233-.9-3.55 0-1.3.292-2.467.875-3.5a6.358 6.358 0 012.475-2.45c1.05-.583 2.233-.875 3.55-.875 1.3 0 2.458.292 3.475.875a5.903 5.903 0 012.4 2.425c.583 1.033.875 2.233.875 3.6zM51.184 9c-1 0-1.85.3-2.55.9-.683.583-1.1 1.367-1.25 2.35h7.575c-.133-.967-.542-1.75-1.225-2.35-.683-.6-1.533-.9-2.55-.9zm12.727-.4c.9-1.4 2.483-2.1 4.75-2.1v2.975a3.966 3.966 0 00-.725-.075c-1.217 0-2.167.358-2.85 1.075-.684.7-1.025 1.717-1.025 3.05V20h-3.125V6.65h2.975V8.6z" fill="#fff"/></svg>