<svg width="35" height="35" fill="none" xmlns="http://www.w3.org/2000/svg"><path d="M35 17.317C35 7.795 27.166.078 17.5.078S0 7.795 0 17.318c0 9.521 7.834 17.238 17.5 17.238.102 0 .205 0 .308-.006V21.136h-3.76v-4.317h3.76V13.64c0-3.684 2.283-5.69 5.619-5.69 1.6 0 2.973.114 3.37.168v3.851H24.5c-1.811 0-2.167.849-2.167 2.095v2.747h4.34l-.567 4.317h-3.773v12.76C29.648 31.823 35 25.19 35 17.318z" fill="url(#paint0_linear)"/><defs><linearGradient id="paint0_linear" x1="35" y1="34.556" x2=".526" y2="-.44" gradientUnits="userSpaceOnUse"><stop stop-color="#A82ABD"/><stop offset="1" stop-color="#2A65BD" stop-opacity=".918"/></linearGradient></defs></svg>