<svg width="35" height="35" fill="none" xmlns="http://www.w3.org/2000/svg"><path d="M20.85 17.317c0 1.823-1.5 3.3-3.35 3.3s-3.35-1.477-3.35-3.3c0-1.822 1.5-3.3 3.35-3.3s3.35 1.478 3.35 3.3z" fill="url(#paint0_linear)"/><path d="M25.333 11.48a3.062 3.062 0 00-.752-1.14 3.116 3.116 0 00-1.155-.74c-.354-.135-.886-.296-1.866-.34-1.06-.048-1.377-.058-4.06-.058-2.684 0-3.002.01-4.061.058-.98.044-1.512.205-1.866.34a3.114 3.114 0 00-1.155.74c-.334.32-.59.709-.752 1.14-.138.348-.301.872-.346 1.837-.048 1.044-.059 1.357-.059 4s.01 2.956.059 4c.045.966.208 1.49.346 1.838.161.43.418.82.752 1.139.324.328.718.581 1.155.74.354.136.886.297 1.866.341 1.06.048 1.377.058 4.06.058 2.684 0 3.002-.01 4.061-.058.98-.044 1.512-.205 1.866-.34a3.303 3.303 0 001.907-1.88c.138-.348.301-.872.346-1.838.049-1.044.059-1.357.059-4s-.01-2.956-.059-4c-.044-.965-.208-1.49-.346-1.838zM17.5 22.4c-2.85 0-5.16-2.275-5.16-5.083 0-2.807 2.31-5.083 5.16-5.083s5.16 2.276 5.16 5.083c0 2.808-2.31 5.083-5.16 5.083zm5.364-9.179a1.197 1.197 0 01-1.206-1.188c0-.656.54-1.188 1.206-1.188.666 0 1.206.532 1.206 1.188 0 .656-.54 1.188-1.206 1.188z" fill="url(#paint1_linear)"/><path d="M17.5.078C7.836.078 0 7.798 0 17.318c0 9.519 7.836 17.238 17.5 17.238 9.663 0 17.5-7.72 17.5-17.239C35 7.797 27.163.078 17.5.078zm9.988 21.32c-.048 1.054-.218 1.774-.467 2.403a5.1 5.1 0 01-2.939 2.896c-.639.244-1.37.411-2.439.46-1.071.048-1.414.06-4.143.06s-3.071-.012-4.143-.06c-1.07-.049-1.8-.216-2.439-.46a4.93 4.93 0 01-1.78-1.142A4.845 4.845 0 017.979 23.8c-.248-.63-.418-1.349-.467-2.402-.05-1.056-.06-1.393-.06-4.082 0-2.688.01-3.025.06-4.08.048-1.055.218-1.774.467-2.404A4.843 4.843 0 019.138 9.08a4.93 4.93 0 011.78-1.142c.639-.245 1.37-.412 2.439-.46 1.072-.048 1.414-.06 4.143-.06s3.071.012 4.143.06c1.07.048 1.8.215 2.44.46.67.248 1.277.638 1.78 1.142a4.844 4.844 0 011.158 1.753c.249.63.419 1.35.467 2.403.05 1.056.06 1.393.06 4.081 0 2.689-.01 3.026-.06 4.081z" fill="url(#paint2_linear)"/><defs><linearGradient id="paint0_linear" x1="21" y1="20.765" x2="14.105" y2="13.766" gradientUnits="userSpaceOnUse"><stop stop-color="#A82ABD"/><stop offset="1" stop-color="#2A65BD" stop-opacity=".918"/></linearGradient><linearGradient id="paint1_linear" x1="25.2" y1="24.902" x2="10.031" y2="9.504" gradientUnits="userSpaceOnUse"><stop stop-color="#A82ABD"/><stop offset="1" stop-color="#2A65BD" stop-opacity=".918"/></linearGradient><linearGradient id="paint2_linear" x1="35" y1="34.556" x2=".526" y2="-.44" gradientUnits="userSpaceOnUse"><stop stop-color="#A82ABD"/><stop offset="1" stop-color="#2A65BD" stop-opacity=".918"/></linearGradient></defs></svg>