<svg width="35" height="35" fill="none" xmlns="http://www.w3.org/2000/svg"><path d="M17.5.078C7.836.078 0 7.798 0 17.318c0 9.519 7.836 17.238 17.5 17.238 9.663 0 17.5-7.72 17.5-17.239C35 7.797 27.163.078 17.5.078zm7.99 13.441c.008.17.012.34.012.512 0 5.228-4.04 11.258-11.429 11.258-2.268 0-4.38-.655-6.157-1.777.315.036.635.054.958.054a8.137 8.137 0 004.99-1.694 4.014 4.014 0 01-3.753-2.748 4.056 4.056 0 001.814-.068c-1.838-.362-3.223-1.962-3.223-3.878l.001-.05c.541.296 1.16.474 1.82.494a3.938 3.938 0 01-1.788-3.294 3.9 3.9 0 01.544-1.989 11.462 11.462 0 008.28 4.135 3.897 3.897 0 01-.105-.902c0-2.185 1.799-3.957 4.017-3.957a4.04 4.04 0 012.932 1.25 8.128 8.128 0 002.55-.96 3.984 3.984 0 01-1.766 2.188 8.105 8.105 0 002.307-.623 8.097 8.097 0 01-2.004 2.05z" fill="url(#paint0_linear)"/><defs><linearGradient id="paint0_linear" x1="35" y1="34.556" x2=".526" y2="-.44" gradientUnits="userSpaceOnUse"><stop stop-color="#A82ABD"/><stop offset="1" stop-color="#2A65BD" stop-opacity=".918"/></linearGradient></defs></svg>