<svg width="35" height="35" fill="none" xmlns="http://www.w3.org/2000/svg"><path d="M15.32 20.547l5.692-3.23-5.692-3.23v6.46z" fill="url(#paint0_linear)"/><path d="M17.5.078C7.836.078 0 7.798 0 17.318c0 9.519 7.836 17.238 17.5 17.238 9.663 0 17.5-7.72 17.5-17.239C35 7.797 27.163.078 17.5.078zm10.935 17.257s0 3.496-.45 5.182a2.72 2.72 0 01-1.928 1.899c-1.711.443-8.557.443-8.557.443s-6.828 0-8.557-.461a2.72 2.72 0 01-1.928-1.899c-.45-1.668-.45-5.182-.45-5.182s0-3.496.45-5.181a2.775 2.775 0 011.928-1.917c1.711-.444 8.557-.444 8.557-.444s6.846 0 8.557.461a2.72 2.72 0 011.928 1.9c.468 1.685.45 5.199.45 5.199z" fill="url(#paint1_linear)"/><defs><linearGradient id="paint0_linear" x1="20.297" y1="21.261" x2="15.669" y2="13.869" gradientUnits="userSpaceOnUse"><stop stop-color="#A82ABD"/><stop offset="1" stop-color="#2A65BD" stop-opacity=".918"/></linearGradient><linearGradient id="paint1_linear" x1="34.796" y1="34.877" x2="-1.417" y2="1.621" gradientUnits="userSpaceOnUse"><stop stop-color="#A82ABD"/><stop offset="1" stop-color="#2A65BD" stop-opacity=".918"/></linearGradient></defs></svg>