<svg width="28" height="34" fill="none" xmlns="http://www.w3.org/2000/svg"><path d="M.908 24.851c-.548.314-.779.78-.692 1.399.016.116.049.21.098.282l2.235 5.84c.066.188.187.35.364.482a.952.952 0 00.52.342c.21.089.412.12.605.093 7.428-1.037 13.405-4.554 17.932-10.55 4.527-5.996 6.272-12.708 5.235-20.136a1.567 1.567 0 00-.197-.564 1.613 1.613 0 00-.47-.408 1.38 1.38 0 00-.622-.209l-6.23-.55a.652.652 0 00-.298-.017c-.619.086-1.004.436-1.155 1.048l-1.878 6.889c-.056.165-.07.345-.043.538.06.426.285.769.676 1.03l3.88 2.357c-.62 2.059-1.796 4.234-3.527 6.527-1.73 2.293-3.501 4.019-5.311 5.179L8.7 21.338c-.358-.305-.75-.428-1.175-.369-.194.027-.363.09-.507.19L.908 24.85z" fill="#fff"/></svg>