<svg width="27" height="24" fill="none" xmlns="http://www.w3.org/2000/svg"><path d="M24.75 14.156l2.203-9.75C27.093 3.703 26.578 3 25.828 3H7.453L7.031.937C6.891.422 6.421 0 5.906 0H1.125A1.11 1.11 0 000 1.125v.75C0 2.531.469 3 1.125 3h3.234l3.329 16.125c-.797.469-1.313 1.313-1.313 2.25A2.62 2.62 0 009 24c1.406 0 2.625-1.172 2.625-2.625 0-.703-.328-1.36-.797-1.875h9.797c-.469.516-.75 1.172-.75 1.875A2.62 2.62 0 0022.5 24c1.406 0 2.625-1.172 2.625-2.625 0-1.031-.61-1.922-1.5-2.344l.234-1.125c.188-.703-.375-1.406-1.078-1.406H10.22L9.89 15h13.734c.516 0 .984-.328 1.125-.844z" fill="#F1BC33"/></svg>