<svg width="48" height="49" fill="none" xmlns="http://www.w3.org/2000/svg"><path d="M9.716 29.528L29.653 9.097l17.36-.084L9.625 48.375l.091-18.847z" fill="#E64242"/><path d="M22.188 30.129l-.825.825-4.34-4.34-1.485 1.484-.707-.707 3.794-3.795.708.708-1.485 1.485 4.34 4.34zm3.646-7.479c.624.624.95 1.27.98 1.94.03.67-.24 1.29-.81 1.861a2.587 2.587 0 01-1.188.705 2.256 2.256 0 01-1.326-.062c-.45-.155-.873-.43-1.27-.829-.62-.62-.944-1.261-.974-1.927-.03-.665.244-1.286.821-1.864.553-.552 1.168-.811 1.848-.777.676.032 1.316.35 1.92.953zm-2.78 2.78c.882.881 1.649.996 2.3.345.645-.645.526-1.408-.355-2.29-.873-.872-1.633-.983-2.283-.334-.34.34-.475.7-.404 1.08.074.378.322.777.743 1.198zm5.152-8.957l3.819 3.819-.815.815-3.177-3.177-1.712 1.713 3.176 3.176-.81.812-3.82-3.819 3.34-3.339z" fill="#fff"/></svg>